<?xml version="1.0" encoding="UTF-8"?>
<svg xmlns="http://www.w3.org/2000/svg" xmlns:xlink="http://www.w3.org/1999/xlink" width="200px" height="200px" viewBox="0 0 200 200" version="1.1">
<g id="surface1">
<path style=" stroke:none;fill-rule:nonzero;fill:rgb(0%,0%,0%);fill-opacity:1;" d="M 98 191.347656 C 97.234375 189.109375 95.710938 188.414062 93.613281 188.050781 C 81.183594 185.886719 69.765625 181.308594 59.914062 173.253906 C 58.816406 172.355469 57.902344 172.289062 56.65625 172.792969 C 52.839844 174.332031 49.316406 173.511719 46.441406 170.769531 C 43.523438 167.992188 42.902344 164.410156 44.074219 160.578125 C 44.460938 159.316406 44.75 158.25 43.855469 156.984375 C 37.378906 147.800781 33.480469 137.539062 31.511719 126.523438 C 31.230469 124.945312 30.554688 124.011719 29.089844 123.3125 C 25.628906 121.65625 24.066406 118.601562 24.039062 114.929688 C 24.015625 111.367188 25.402344 108.269531 28.792969 106.644531 C 30.644531 105.761719 31.257812 104.441406 31.585938 102.582031 C 37.15625 70.949219 60.851562 47.878906 92.664062 43.089844 C 113.3125 39.980469 132.453125 43.769531 149.933594 55.472656 C 152.539062 57.214844 153.824219 59.300781 153.367188 62.832031 C 162.988281 58.828125 172.117188 55.027344 181.414062 51.15625 C 180.769531 50.09375 179.816406 49.855469 178.980469 49.5 C 155.949219 39.816406 132.902344 30.175781 109.894531 20.4375 C 106.71875 19.09375 103.867188 19.160156 100.675781 20.511719 C 77.523438 30.316406 54.320312 39.996094 31.132812 49.71875 C 30.554688 49.964844 30.011719 50.28125 28.804688 50.890625 C 36.132812 53.972656 42.960938 56.851562 49.933594 59.785156 C 48.980469 61.964844 47.289062 63.117188 45.960938 64.535156 C 45.304688 65.234375 44.445312 64.609375 43.722656 64.308594 C 37.21875 61.597656 30.730469 58.851562 24.214844 56.160156 C 21.839844 55.179688 19.980469 53.820312 19.90625 50.988281 C 19.828125 48.003906 21.792969 46.597656 24.222656 45.574219 C 35.585938 40.785156 46.945312 35.984375 58.308594 31.203125 C 72.039062 25.425781 85.796875 19.71875 99.492188 13.863281 C 103.347656 12.210938 106.976562 12.097656 110.855469 13.734375 C 135.71875 24.226562 160.613281 34.644531 185.496094 45.089844 C 186.234375 45.398438 186.960938 45.734375 187.6875 46.070312 C 189.65625 46.980469 190.925781 48.402344 190.984375 50.671875 C 191.046875 53.007812 189.980469 54.6875 187.863281 55.621094 C 184.640625 57.042969 181.414062 58.464844 178.128906 59.726562 C 176.503906 60.351562 175.980469 61.324219 176.023438 62.996094 C 176.113281 66.757812 176.082031 70.527344 176.027344 74.289062 C 176.007812 75.652344 176.375 76.675781 177.347656 77.707031 C 179.621094 80.105469 179.816406 83.226562 177.753906 85.789062 C 176.648438 87.160156 176.507812 88.363281 176.964844 89.964844 C 177.753906 92.734375 178.277344 95.578125 179.058594 98.351562 C 179.488281 99.867188 179.140625 100.761719 177.699219 101.414062 C 174.433594 102.890625 171.199219 102.882812 167.921875 101.488281 C 166.519531 100.890625 166.019531 99.984375 166.429688 98.445312 C 167.25 95.351562 167.886719 92.210938 168.730469 89.125 C 169.066406 87.894531 168.8125 87.074219 168.023438 86.09375 C 165.648438 83.136719 165.707031 80.488281 168.207031 77.660156 C 169.125 76.617188 169.546875 75.554688 169.523438 74.199219 C 169.480469 71.636719 169.519531 69.070312 169.515625 66.507812 C 169.515625 65.632812 169.542969 64.746094 168.8125 63.863281 C 165.25 64.746094 161.949219 66.390625 158.585938 67.816406 C 152.3125 70.46875 153.554688 68.871094 153.398438 75.464844 C 153.339844 78.109375 153.394531 80.753906 153.378906 83.398438 C 153.351562 88.164062 151.457031 91.917969 146.902344 93.667969 C 142.363281 95.410156 138.03125 94.621094 134.457031 91.164062 C 132.097656 88.886719 129.96875 86.394531 127.324219 84.390625 C 106.144531 68.339844 75.089844 80.160156 69.910156 106.296875 C 68.28125 114.523438 69.414062 122.367188 73.300781 129.824219 C 74.011719 131.1875 74.742188 131.746094 76.414062 131.640625 C 82.65625 131.238281 86.570312 134.359375 87.445312 140.15625 C 87.515625 140.625 87.671875 141.1875 87.496094 141.574219 C 86.210938 144.472656 87.894531 146.234375 89.652344 148.226562 C 96.441406 155.929688 101.691406 164.59375 105.160156 174.292969 C 105.507812 175.265625 105.691406 176.304688 107.105469 176.367188 C 108.632812 176.433594 108.984375 175.351562 109.335938 174.292969 C 111.257812 168.503906 115.097656 165.007812 121.082031 163.425781 C 130.207031 161.011719 137.835938 155.949219 144.347656 149.164062 C 144.902344 148.585938 145.4375 147.984375 146.054688 147.476562 C 147.414062 146.359375 148.863281 146.304688 150.1875 147.496094 C 151.5 148.679688 151.671875 150.117188 150.625 151.582031 C 150.023438 152.425781 149.347656 153.226562 148.636719 153.980469 C 141.421875 161.601562 132.808594 167.089844 122.675781 169.722656 C 117.285156 171.125 115.613281 174.941406 114.242188 179.417969 C 113.972656 180.296875 114.445312 180.964844 114.757812 181.691406 C 116.929688 186.75 115.433594 191.898438 111.042969 194.46875 C 106.625 197.058594 101.472656 195.878906 98 191.347656 M 40.957031 108.351562 C 43.113281 110.804688 43.726562 113.691406 43.324219 116.855469 C 43.238281 117.550781 42.792969 118.285156 43.40625 118.914062 C 46.65625 122.242188 50.457031 124.796875 54.566406 127.15625 C 58.40625 120.425781 62.078125 114.128906 63.414062 106.535156 C 66.21875 90.585938 75.234375 79.117188 90.523438 73.433594 C 106.140625 67.625 120.578125 70.441406 133.46875 81.039062 C 135.398438 82.625 136.996094 84.527344 138.730469 86.300781 C 140.265625 87.867188 142.179688 88.394531 144.242188 87.628906 C 146.304688 86.859375 146.597656 85.070312 146.585938 83.085938 C 146.546875 76.675781 146.519531 70.265625 146.640625 63.859375 C 146.679688 61.84375 145.96875 60.6875 144.261719 59.621094 C 129.382812 50.351562 113.1875 47.019531 95.929688 49.25 C 66.445312 53.0625 44.300781 72.941406 38.464844 100.925781 C 37.835938 103.933594 37.304688 106.53125 40.957031 108.351562 M 93.410156 181.351562 C 95.023438 181.566406 96.710938 182.375 98.03125 180.605469 C 98.863281 179.488281 100.304688 178.601562 99.300781 176.898438 C 98.09375 174.851562 98.464844 171.796875 94.972656 171.246094 C 89.007812 170.3125 83.371094 168.253906 78.046875 165.378906 C 73.875 163.125 69.929688 160.546875 66.476562 157.28125 C 65 155.890625 64.636719 154.171875 66.046875 152.589844 C 67.484375 150.980469 69.175781 151.320312 70.753906 152.570312 C 70.941406 152.71875 71.113281 152.886719 71.296875 153.042969 C 76.5625 157.460938 82.414062 160.859375 88.960938 163.003906 C 90.035156 163.355469 91.117188 164.046875 92.40625 163.558594 C 92.363281 163.226562 92.394531 162.964844 92.289062 162.777344 C 89.777344 158.277344 86.421875 154.402344 83.113281 150.492188 C 82.554688 149.832031 81.929688 149.871094 81.171875 150.113281 C 74.542969 152.230469 68.667969 148.234375 68.097656 142.046875 C 68.042969 141.441406 67.800781 140.9375 67.246094 140.695312 C 64.261719 139.40625 61.265625 138.144531 58.105469 136.804688 C 56.355469 141.625 55.945312 146.390625 55.445312 151.144531 C 55.238281 153.113281 55.765625 154.304688 57.761719 155.226562 C 61.523438 156.964844 63.675781 160.996094 62.90625 164.648438 C 62.507812 166.546875 63.054688 167.585938 64.503906 168.6875 C 73.015625 175.144531 82.542969 179.265625 93.410156 181.351562 M 38.824219 130.199219 C 40.804688 138.332031 44.09375 145.882812 49.105469 153.269531 C 49.132812 146.671875 50.039062 140.71875 51.871094 134.929688 C 52.234375 133.777344 51.859375 133.148438 50.886719 132.589844 C 46.921875 130.304688 43.269531 127.585938 39.835938 124.5625 C 39.328125 124.109375 38.804688 123.46875 37.832031 124.066406 C 37.613281 126.011719 38.496094 127.871094 38.824219 130.199219 M 62.527344 126.253906 C 62.054688 127.179688 61.582031 128.105469 61.113281 129.03125 C 60.8125 129.625 60.515625 130.328125 61.203125 130.753906 C 63.167969 131.980469 65.234375 132.996094 67.976562 133.640625 C 66.171875 130.289062 65.335938 127.148438 64.039062 123.851562 C 63.441406 124.773438 63.058594 125.367188 62.527344 126.253906 M 36.863281 115.441406 C 37.050781 113.816406 36.410156 112.601562 34.921875 111.949219 C 33.839844 111.476562 32.71875 111.53125 31.78125 112.375 C 30.847656 113.222656 30.203125 114.246094 30.574219 115.554688 C 30.953125 116.878906 31.855469 117.847656 33.242188 118.019531 C 34.9375 118.230469 36.15625 117.414062 36.863281 115.441406 M 78.042969 144.148438 C 81.015625 143.183594 81.996094 140.636719 80.023438 138.84375 C 79.054688 137.96875 77.902344 137.390625 76.523438 138.078125 C 75.164062 138.753906 74.433594 139.789062 74.640625 141.34375 C 74.878906 143.097656 75.90625 144.035156 78.042969 144.148438 M 56.484375 163.703125 C 56.050781 161.601562 54.867188 160.410156 52.625 160.703125 C 51.082031 160.902344 50.210938 161.875 50.082031 163.429688 C 49.941406 165.105469 50.738281 166.242188 52.332031 166.652344 C 54.546875 167.21875 55.820312 166.097656 56.484375 163.703125 M 104.976562 188.945312 C 106.648438 189.414062 108.039062 188.925781 108.785156 187.394531 C 109.398438 186.132812 109.359375 184.726562 108.148438 183.699219 C 107.015625 182.738281 105.730469 182.539062 104.40625 183.324219 C 102.390625 184.519531 102.511719 186.933594 104.976562 188.945312 Z M 104.976562 188.945312 "/>
<path style=" stroke:none;fill-rule:nonzero;fill:rgb(0%,0%,0%);fill-opacity:1;" d="M 115.738281 148.914062 C 121.90625 147.144531 127.324219 144.226562 131.449219 139.636719 C 140.417969 129.664062 153.800781 130.371094 162.824219 138.953125 C 164.425781 140.476562 165.816406 141.199219 168.238281 140.867188 C 173.730469 140.109375 178.464844 144.804688 178.488281 150.496094 C 178.515625 156.238281 173.816406 160.703125 168.007812 160.128906 C 166.132812 159.945312 165.101562 160.503906 163.980469 161.839844 C 152.957031 174.992188 139.035156 183.445312 122.339844 187.367188 C 121.402344 187.589844 120.476562 187.8125 119.320312 187.53125 C 119.105469 185.953125 118.816406 184.324219 118.683594 182.683594 C 118.566406 181.183594 119.871094 181.164062 120.835938 180.949219 C 128.898438 179.148438 136.355469 175.933594 143.324219 171.519531 C 149.40625 167.664062 154.636719 162.871094 159.332031 157.449219 C 160.214844 156.429688 160.46875 155.5 159.84375 154.203125 C 158.792969 152.023438 158.652344 149.710938 159.621094 147.445312 C 160.175781 146.152344 159.925781 145.195312 158.949219 144.214844 C 152.605469 137.847656 143.5625 136.066406 136.347656 143.757812 C 128.847656 151.753906 119.3125 155.628906 108.484375 156.832031 C 101.976562 157.558594 97.503906 155.277344 94.878906 148.679688 C 101.8125 150.558594 108.703125 150.996094 115.738281 148.914062 M 170.261719 153.230469 C 171.644531 152.273438 172.390625 151.042969 171.679688 149.367188 C 171.15625 148.136719 170.28125 147.242188 168.785156 147.292969 C 167.367188 147.339844 166.40625 148.054688 165.824219 149.320312 C 165.296875 150.46875 165.566406 151.519531 166.328125 152.425781 C 167.285156 153.558594 168.492188 153.996094 170.261719 153.230469 Z M 170.261719 153.230469 "/>
<path style=" stroke:none;fill-rule:nonzero;fill:rgb(0%,0%,0%);fill-opacity:1;" d="M 55.863281 99.605469 C 54.847656 102.761719 54.304688 105.820312 53.9375 108.917969 C 53.78125 110.253906 53.710938 111.679688 52.382812 112.511719 C 51.253906 113.214844 50.082031 113.1875 48.980469 112.492188 C 47.46875 111.539062 47.34375 110.019531 47.535156 108.453125 C 48.136719 103.523438 49.261719 98.710938 51.046875 94.070312 C 52.429688 90.480469 54.113281 87.03125 56.367188 83.898438 C 58.664062 80.707031 59.300781 77.378906 57.34375 73.804688 C 56.792969 72.804688 56.9375 71.996094 57.765625 71.242188 C 58.867188 70.234375 59.765625 68.980469 61.289062 68.210938 C 64.03125 71.179688 64.761719 74.667969 64.742188 78.425781 C 64.726562 81.65625 63.632812 84.511719 61.875 87.175781 C 59.351562 90.992188 57.265625 95.03125 55.863281 99.605469 Z M 55.863281 99.605469 "/>
</g>
</svg>
